<?xml version="1.0" standalone="no"?><!DOCTYPE svg PUBLIC "-//W3C//DTD SVG 1.1//EN" "http://www.w3.org/Graphics/SVG/1.1/DTD/svg11.dtd"><svg t="1552531116631" class="icon" style="" viewBox="0 0 1024 1024" version="1.1" xmlns="http://www.w3.org/2000/svg" p-id="2453" xmlns:xlink="http://www.w3.org/1999/xlink" width="200" height="200"><defs><style type="text/css"></style></defs><path d="M150.588235 0h722.82353c83.169882 0 150.588235 67.418353 150.588235 150.588235v722.82353c0 83.169882-67.418353 150.588235-150.588235 150.588235H150.588235C67.418353 1024 0 956.581647 0 873.411765V150.588235C0 67.418353 67.418353 0 150.588235 0z m192.858353 258.981647v-4.080941c-1.234824 0-1.716706 0-2.213647 0.240941-16.941176 0-34.032941-0.120471-50.974117 0.120471-5.285647 0-10.691765 0.602353-15.856942 1.807058-25.178353 5.647059-48.760471 25.494588-48.519529 58.804706 0.602353 83.712 0.256 167.529412 0.256 251.241412v188.084706c0 17.92 7.122824 32.361412 21.368471 43.550118 13.251765 10.330353 28.611765 14.426353 45.447529 14.426353 146.311529 0 292.623059 0 438.949647-0.120471 6.505412 0 13.131294-0.602353 19.395765-2.048 24.952471-5.647059 47.796706-25.856 47.555764-57.374118-0.496941-75.399529-0.135529-150.919529-0.135529-226.334117V312.982588c0-13.462588-4.050824-25.615059-13.251765-35.84-13.763765-15.149176-31.457882-21.880471-51.847529-22.13647-16.459294-0.105412-33.054118 0-49.513412 0-0.858353 0-1.716706 0-2.951529 0.135529v3.719529c0 12.047059-0.120471 24.064 0 36.080942 0 9.863529-4.171294 17.679059-12.272941 23.341176-10.571294 7.213176-21.985882 8.417882-33.912471 4.201412-12.047059-4.216471-20.886588-14.908235-20.269177-28.506353 0.496941-11.896471 0.120471-23.928471 0.120471-35.84 0-1.069176-0.120471-2.168471-0.120471-3.117177H409.660235v41.246118c0 8.884706-3.915294 15.872-11.053176 21.037177-12.528941 9.140706-26.157176 9.863529-39.800471 2.770823-8.839529-4.562824-14.742588-12.016941-15.104-22.241882-0.376471-12.995765-0.256-25.871059-0.256-38.851765z m411.211294 98.755765v3.975529c0 125.590588 0 251.316706 0.120471 376.892235 0 13.552941-8.779294 21.097412-18.055529 22.603295-2.800941 0.406588-5.722353 0.542118-8.538353 0.542117H294.851765c-7.439059 0-14.396235-1.505882-19.877647-7.664941a20.103529 20.103529 0 0 1-4.99953-13.146353V357.737412h484.698353z m-367.164235-95.36753c-0.120471-12.649412-0.120471-25.434353 0-38.219294 0-4.638118-1.701647-8.146824-5.089882-10.149647a22.919529 22.919529 0 0 0-9.261177-3.132235c-9.487059-0.632471-15.043765 5.632-15.043764 16.037647v71.800471c0 1.249882 0 2.499765 0.240941 3.764705 1.008941 6.384941 6.204235 10.646588 13.552941 11.14353 10.059294 0.632471 15.600941-5.135059 15.600941-16.158118v-35.087059z m242.401882-0.135529c0 12.498824 0.120471 24.982588 0.120471 37.586823-0.105412 5.752471 2.364235 9.366588 6.746353 11.866353 3.388235 1.987765 7.228235 2.364235 10.932706 1.626353 6.174118-1.129412 11.700706-5.632 11.595294-14.607058-0.240941-24.350118-0.120471-48.579765-0.120471-72.794353 0-1.249882 0-2.499765-0.225882-3.764706-1.024-5.857882-5.180235-9.728-11.941647-10.962824-10.014118-2.002824-17.106824 4.608-17.106824 15.721412v35.328zM489.261176 636.626824a104.463059 104.463059 0 0 1-3.674352-4.156236c-22.738824-26.127059-45.613176-52.254118-68.472471-78.396235-4.668235-5.240471-10.450824-8.432941-17.814588-7.559529-12.905412 1.581176-21.278118 15.134118-18.688 29.545411 1.355294 7.318588 6.144 12.453647 10.812235 17.829647 27.286588 31.126588 54.573176 62.509176 81.859765 93.650824 9.456941 10.872471 22.497882 10.736941 31.834353 0l154.503529-176.926118c6.761412-7.830588 8.598588-16.715294 5.647059-26.503529-2.454588-8.176941-7.740235-13.914353-16.338824-15.75153-7.981176-1.701647-14.381176 1.716706-19.546353 7.695059-38.098824 43.715765-76.077176 87.311059-114.176 130.906353-8.613647 9.758118-17.091765 19.531294-25.946353 29.665883z" fill="#95B93D" p-id="2454"></path></svg>