<?xml version="1.0" standalone="no"?><!DOCTYPE svg PUBLIC "-//W3C//DTD SVG 1.1//EN" "http://www.w3.org/Graphics/SVG/1.1/DTD/svg11.dtd"><svg t="1551862583885" class="icon" style="" viewBox="0 0 1024 1024" version="1.1" xmlns="http://www.w3.org/2000/svg" p-id="7082" xmlns:xlink="http://www.w3.org/1999/xlink" width="200" height="200"><defs><style type="text/css"></style></defs><path d="M525.7216 794.112a230.6048 230.6048 0 0 1-8.4992 61.952h64.2048a15.7696 15.7696 0 0 0 13.824-23.6544A191.488 191.488 0 0 1 860.16 572.7232a15.7696 15.7696 0 0 0 23.9616-13.6192V396.8a159.4368 159.4368 0 0 0-115.4048-152.6784 15.9744 15.9744 0 0 0-20.48 15.4624v27.648c0 17.3056-14.336 38.4-47.7184 38.4s-47.7184-21.0944-47.7184-38.4v-33.4848a15.872 15.872 0 0 0-15.872-15.872h-225.28a15.872 15.872 0 0 0-15.872 15.872v33.4848c0 17.3056-14.336 38.4-47.7184 38.4s-47.7184-21.0944-47.7184-38.4v-29.7984a15.9744 15.9744 0 0 0-19.2512-15.6672 159.5392 159.5392 0 0 0-123.8016 155.0336V609.28a230.6048 230.6048 0 0 1 368.64 184.832zM253.8496 447.6928v-52.9408a21.2992 21.2992 0 0 1 21.1968-21.1968h491.52a21.2992 21.2992 0 0 1 21.1968 21.1968v52.9408a21.2992 21.2992 0 0 1-21.1968 21.1968h-491.52a21.2992 21.2992 0 0 1-21.1968-21.1968z" fill="#01C700" p-id="7083"></path><path d="M734.4128 284.9792v-76.8c0-11.4688-7.9872-25.6-31.744-25.6s-31.744 14.0288-31.744 25.6v76.8c0 11.4688 9.5232 25.6 31.744 25.6s31.744-13.6192 31.744-25.6zM381.3376 284.9792v-76.8c0-11.4688-7.9872-25.6-31.744-25.6S317.44 196.7104 317.44 208.1792v76.8c0 11.4688 9.5232 25.6 31.744 25.6s32.1536-13.6192 32.1536-25.6z" fill="#01C700" p-id="7084"></path><path d="M253.8496 373.5552l533.9136 0 0 95.3344-533.9136 0 0-95.3344Z" fill="#FFFFFF" p-id="7085"></path><path d="M760.6272 587.9808a146.432 146.432 0 1 0 146.432 146.432 146.432 146.432 0 0 0-146.432-146.432z m86.3232 120.0128l-86.4256 86.4256a23.8592 23.8592 0 0 1-33.6896 0l-52.4288-52.4288a23.8592 23.8592 0 1 1 33.6896-33.6896l35.6352 35.6352 69.5296-69.5296a23.8592 23.8592 0 1 1 33.6896 33.6896z" fill="#01C700" p-id="7086"></path><path d="M813.2608 674.304l-69.5296 69.5296-35.6352-35.6352a23.8592 23.8592 0 1 0-33.6896 33.6896L727.04 794.5216a23.8592 23.8592 0 0 0 33.6896 0l86.4256-86.4256a23.8592 23.8592 0 1 0-33.6896-33.6896z" fill="#FFFFFF" p-id="7087"></path><path d="M316.3136 856.064h201.0112a230.6048 230.6048 0 0 0-360.0384-246.784v87.8592A159.4368 159.4368 0 0 0 316.3136 856.064z" fill="#01C700" p-id="7088"></path><path d="M316.3136 856.064h201.0112a230.6048 230.6048 0 0 0-360.0384-246.784v87.8592A159.4368 159.4368 0 0 0 316.3136 856.064z" fill="#3DD240" p-id="7089"></path></svg>