<?xml version="1.0" standalone="no"?><!DOCTYPE svg PUBLIC "-//W3C//DTD SVG 1.1//EN" "http://www.w3.org/Graphics/SVG/1.1/DTD/svg11.dtd"><svg t="1550712124972" class="icon" style="" viewBox="0 0 1024 1024" version="1.1" xmlns="http://www.w3.org/2000/svg" p-id="1918" xmlns:xlink="http://www.w3.org/1999/xlink" width="200" height="200"><defs><style type="text/css"></style></defs><path d="M521.6 259.2h-172.8c-9.6 0-19.2-9.6-19.2-19.2s9.6-19.2 19.2-19.2h172.8c9.6 0 19.2 9.6 19.2 19.2s-9.6 19.2-19.2 19.2zM588.8 448h-240c-9.6 0-19.2-9.6-19.2-19.2s9.6-19.2 19.2-19.2h240c9.6 0 19.2 9.6 19.2 19.2-3.2 9.6-9.6 19.2-19.2 19.2zM739.2 361.6H348.8c-9.6 0-19.2-9.6-19.2-19.2s9.6-19.2 19.2-19.2h390.4c9.6 0 19.2 9.6 19.2 19.2s-9.6 19.2-19.2 19.2zM720 806.4H329.6c-9.6 0-19.2-9.6-19.2-19.2s9.6-19.2 19.2-19.2h390.4c9.6 0 19.2 9.6 19.2 19.2s-9.6 19.2-19.2 19.2zM828.8 259.2h-134.4V105.6c0-9.6 9.6-19.2 19.2-19.2 12.8 0 22.4 9.6 22.4 19.2v115.2h96c9.6 0 19.2 9.6 19.2 19.2s-9.6 19.2-22.4 19.2z" fill="#19AA8D" p-id="1919"></path><path d="M828.8 956.8h-608c-38.4 0-67.2-28.8-67.2-67.2v-768c0-38.4 32-67.2 67.2-67.2h521.6c9.6 0 22.4 6.4 28.8 12.8l115.2 134.4c6.4 6.4 9.6 16 9.6 25.6v662.4c0 35.2-32 67.2-67.2 67.2zM230.4 880h592v-640l-96-112H230.4v752z" fill="#19AA8D" p-id="1920"></path><path d="M393.6 793.6c-9.6 0-19.2-9.6-19.2-19.2v-112c0-9.6 9.6-19.2 19.2-19.2s19.2 9.6 19.2 19.2v112c0 12.8-6.4 19.2-19.2 19.2zM480 793.6c-9.6 0-19.2-9.6-19.2-19.2v-147.2c0-9.6 9.6-19.2 19.2-19.2s19.2 9.6 19.2 19.2v147.2c0 12.8-6.4 19.2-19.2 19.2zM566.4 793.6c-9.6 0-19.2-9.6-19.2-19.2v-192c0-9.6 9.6-19.2 19.2-19.2s19.2 9.6 19.2 19.2v192c0 12.8-6.4 19.2-19.2 19.2zM652.8 793.6c-9.6 0-19.2-9.6-19.2-19.2v-240c0-9.6 9.6-19.2 19.2-19.2s19.2 9.6 19.2 19.2v240c0 12.8-6.4 19.2-19.2 19.2z" fill="#F8AC59" p-id="1921"></path></svg>